<?xml version="1.0" encoding="UTF-8"?> <svg xmlns="http://www.w3.org/2000/svg" width="68" height="68" viewBox="0 0 68 68" fill="none"><path d="M33.8857 14.875V29.9018" stroke="#2B8CFF" stroke-width="3" stroke-linecap="round"></path><path d="M53.4661 34L38.4393 34" stroke="#2B8CFF" stroke-width="3" stroke-linecap="round"></path><circle cx="33.8858" cy="34" r="32.1964" stroke="black" stroke-width="3"></circle><circle cx="33.8858" cy="34" r="3.05357" stroke="black" stroke-width="3"></circle><path fill-rule="evenodd" clip-rule="evenodd" d="M33.886 11.2322C34.3889 11.2322 34.7967 10.4167 34.7967 9.41072C34.7967 8.40478 34.3889 7.58929 33.886 7.58929C33.383 7.58929 32.9752 8.40478 32.9752 9.41072C32.9752 10.4167 33.383 11.2322 33.886 11.2322ZM33.8857 60.4107C34.3886 60.4107 34.7964 59.5952 34.7964 58.5893C34.7964 57.5833 34.3886 56.7679 33.8857 56.7679C33.3827 56.7679 32.975 57.5833 32.975 58.5893C32.975 59.5952 33.3827 60.4107 33.8857 60.4107ZM58.475 34.9107C57.4691 34.9107 56.6536 34.503 56.6536 34C56.6536 33.497 57.4691 33.0893 58.475 33.0893C59.481 33.0893 60.2965 33.497 60.2965 34C60.2965 34.503 59.481 34.9107 58.475 34.9107ZM7.4751 34C7.4751 34.503 8.29058 34.9107 9.29653 34.9107C10.3025 34.9107 11.118 34.503 11.118 34C11.118 33.497 10.3025 33.0893 9.29653 33.0893C8.29058 33.0893 7.4751 33.497 7.4751 34Z" fill="#2B8CFF"></path></svg> 