<?xml version="1.0" encoding="UTF-8"?> <svg xmlns="http://www.w3.org/2000/svg" width="78" height="77" viewBox="0 0 78 77" fill="none"><path d="M66.5 42.5V31.5H39.25M66.5 42.5H69.5V63H62.5M66.5 42.5H62.5V50M62.5 63V67M62.5 63H16M16 63V67M16 63C13.6667 63 9 63 9 63V42.5H12.5M12.5 42.5V31.5H39.25M12.5 42.5H16V50M62.5 50V57.5H16V50M62.5 50H39.25M16 50H39.25M39.25 50V31.5" stroke="black" stroke-width="3"></path><path d="M76 38.5C76 18.3416 59.4345 2 39 2C18.5655 2 2 18.3416 2 38.5M19.5 69.5253C25.1619 72.9958 31.8437 75 39 75C46.1563 75 52.8381 72.9958 58.5 69.5253" stroke="black" stroke-width="3" stroke-linecap="round"></path><path d="M33.7172 17C35.9088 15.7311 37.7311 13.9088 39 11.7172C40.2689 13.9088 42.0912 15.7311 44.2828 17C42.0912 18.2689 40.2689 20.0912 39 22.2828C37.7311 20.0912 35.9088 18.2689 33.7172 17Z" stroke="#2B8CFF" stroke-width="3"></path><path d="M28 19C28.5143 20.3899 29.6101 21.4857 31 22C29.6101 22.5143 28.5143 23.6101 28 25C27.4857 23.6101 26.3899 22.5143 25 22C26.3899 21.4857 27.4857 20.3899 28 19Z" fill="#2B8CFF"></path><circle cx="26" cy="41" r="2" fill="#2B8CFF"></circle><circle cx="53" cy="41" r="2" fill="#2B8CFF"></circle></svg> 