<?xml version="1.0" encoding="UTF-8"?> <svg xmlns="http://www.w3.org/2000/svg" width="74" height="74" viewBox="0 0 74 74" fill="none"><circle cx="37" cy="37" r="35.5" stroke="black" stroke-width="3"></circle><rect x="20.5" y="14.5" width="33" height="45" stroke="black" stroke-width="3"></rect><rect x="26.5" y="20.5" width="20" height="8" stroke="#2B8CFF" stroke-width="3"></rect><path d="M26.5 34.5H46.5V54.5H26.5V34.5Z" stroke="black" stroke-width="3"></path><path fill-rule="evenodd" clip-rule="evenodd" d="M11 32C10.4477 32 10 32.4477 10 33V36L7 36C6.44772 36 6 36.4477 6 37C6 37.5523 6.44772 38 7 38H10V41C10 41.5523 10.4477 42 11 42C11.5523 42 12 41.5523 12 41V38H15C15.5523 38 16 37.5523 16 37C16 36.4477 15.5523 36 15 36L12 36V33C12 32.4477 11.5523 32 11 32Z" fill="#2B8CFF"></path><rect x="58" y="36" width="9" height="2" rx="1" fill="#2B8CFF"></rect></svg> 