<?xml version="1.0" encoding="UTF-8"?> <svg xmlns="http://www.w3.org/2000/svg" width="87" height="94" viewBox="0 0 87 94" fill="none"><path d="M43.5 9.01408C20.5802 9.01408 2 27.5943 2 50.5141C2 73.4339 20.5802 92.0141 43.5 92.0141C66.4198 92.0141 85 73.4339 85 50.5141C85 40.9634 81.7738 32.1662 76.3516 25.153M43.5 9.01408L38.2394 2M43.5 9.01408L38.2394 16.0282" stroke="black" stroke-width="3" stroke-linecap="round"></path><rect x="19.5352" y="63.9577" width="49.0986" height="3.50704" rx="1.75352" fill="black"></rect><rect x="35.9014" y="60.4507" width="25.7183" height="3.50704" rx="1.75352" transform="rotate(-90 35.9014 60.4507)" fill="#2B8CFF"></rect><rect x="59.2817" y="60.4507" width="37.4085" height="3.50704" rx="1.75352" transform="rotate(-90 59.2817 60.4507)" fill="#2B8CFF"></rect><rect x="47.5916" y="60.4507" width="21.0423" height="3.50704" rx="1.75352" transform="rotate(-90 47.5916 60.4507)" fill="black"></rect><rect x="24.2112" y="60.4507" width="11.6901" height="3.50704" rx="1.75352" transform="rotate(-90 24.2112 60.4507)" fill="black"></rect></svg> 