<?xml version="1.0" encoding="UTF-8"?> <svg xmlns="http://www.w3.org/2000/svg" width="88" height="88" viewBox="0 0 88 88" fill="none"><path d="M86 44C86 20.804 67.196 2 44 2C20.804 2 2 20.804 2 44M66.7027 79.3414C60.1565 83.5553 52.3638 86 44 86C35.6362 86 27.8435 83.5553 21.2973 79.3414" stroke="black" stroke-width="3" stroke-linecap="round"></path><path d="M62.7297 67.2703H30.946M15.6216 67.2703H23M23 67.2703V42.2973H30.946V67.2703M23 67.2703H30.946M30.946 67.2703V19.5946H63.2973V46.2703" stroke="black" stroke-width="3" stroke-linecap="round"></path><path d="M62.1799 47.9372L63.2975 44.9169L64.4151 47.9372C65.8838 51.9061 69.013 55.0354 72.982 56.504L76.0022 57.6216L72.982 58.7392C69.013 60.2079 65.8838 63.3371 64.4151 67.306L63.2975 70.3263L62.1799 67.306C60.7113 63.3371 57.582 60.2079 53.6131 58.7392L50.5928 57.6216L53.6131 56.504C57.582 55.0354 60.7113 51.9061 62.1799 47.9372Z" stroke="#2B8CFF" stroke-width="3"></path><rect x="36.0541" y="28.1081" width="18.1622" height="2.27027" rx="1.13514" fill="#2B8CFF"></rect><rect x="36.0541" y="36.0541" width="18.1622" height="2.27027" rx="1.13514" fill="#2B8CFF"></rect><circle cx="63.2973" cy="57.6216" r="2.27027" fill="#2B8CFF"></circle></svg> 