<?xml version="1.0" encoding="UTF-8"?> <svg xmlns="http://www.w3.org/2000/svg" width="88" height="97" viewBox="0 0 88 97" fill="none"><path d="M14.1177 23.1351C6.62528 30.7206 2 41.1445 2 52.6486C2 75.8446 20.804 94.6486 44 94.6486C67.196 94.6486 86 75.8446 86 52.6486C86 41.1445 81.3747 30.7206 73.8823 23.1351" stroke="black" stroke-width="3" stroke-linecap="round"></path><path d="M61.027 71.9459L59.6051 72.4237L59.9486 73.4459H61.027V71.9459ZM70.1081 71.9459L70.1525 73.4453C70.9719 73.4211 71.6201 72.7435 71.6079 71.9238C71.5958 71.1041 70.9279 70.4459 70.1081 70.4459V71.9459ZM50.8754 71.0142C50.0474 71.0387 49.3959 71.7298 49.4204 72.5579C49.4449 73.3859 50.1361 74.0373 50.9641 74.0129L50.8754 71.0142ZM50.9198 41.8649L52.3417 41.3871L50.9198 41.8649ZM23 41.8649V40.3649H21.5V41.8649H23ZM23 61.7297H21.5V63.6712L23.3786 63.1812L23 61.7297ZM36.0541 58.3243L36.4327 59.7757L37.5541 59.4832V58.3243H36.0541ZM46.2703 72.5135V74.0135H47.6128L47.7611 72.6792L46.2703 72.5135ZM25.8378 72.5135L24.3454 72.6644L24.4818 74.0135H25.8378V72.5135ZM61.027 73.4459H70.1081V70.4459H61.027V73.4459ZM70.0638 70.4466L50.8754 71.0142L50.9641 74.0129L70.1525 73.4453L70.0638 70.4466ZM35.7673 1.47775L49.4979 42.3426L52.3417 41.3871L38.6111 0.522247L35.7673 1.47775ZM49.4979 42.3426L59.6051 72.4237L62.4489 71.4682L52.3417 41.3871L49.4979 42.3426ZM21.5 41.8649V61.7297H24.5V41.8649H21.5ZM36.0541 40.3649H23V43.3649H36.0541V40.3649ZM37.5541 58.3243V41.8649H34.5541V58.3243H37.5541ZM50.9198 40.3649H49.6757V43.3649H50.9198V40.3649ZM49.6757 40.3649H36.0541V43.3649H49.6757V40.3649ZM46.2703 71.0135H25.8378V74.0135H46.2703V71.0135ZM23.3786 63.1812L25.0813 62.737L24.3241 59.8341L22.6214 60.2783L23.3786 63.1812ZM25.0813 62.737L36.4327 59.7757L35.6754 56.8729L24.3241 59.8341L25.0813 62.737ZM27.3302 72.3626L26.1951 61.1347L23.2103 61.4364L24.3454 72.6644L27.3302 72.3626ZM48.1849 41.6992L45.7885 63.2668L48.7701 63.5981L51.1665 42.0305L48.1849 41.6992ZM45.7885 63.2668L44.7794 72.3479L47.7611 72.6792L48.7701 63.5981L45.7885 63.2668ZM43.4324 46.7703C43.1311 46.7703 42.9148 46.6738 42.8997 46.6676C42.8388 46.6426 42.8009 46.621 42.7966 46.6186C42.7852 46.6122 42.8034 46.622 42.8607 46.6618C42.9695 46.7375 43.1405 46.8666 43.3678 47.0515C43.818 47.4176 44.4353 47.9587 45.1287 48.6283C46.524 49.9759 48.1625 51.7818 49.3646 53.6678C50.6046 55.6131 51.1928 57.3523 50.972 58.6708C50.7863 59.7797 49.9223 61.0907 46.8557 61.9935L47.7029 64.8714C51.384 63.7877 53.4839 61.8352 53.9308 59.1662C54.3427 56.7068 53.2321 54.1538 51.8944 52.0552C50.5188 49.8972 48.7007 47.9075 47.2128 46.4705C46.4646 45.7478 45.7837 45.1493 45.2606 44.724C45.0013 44.5131 44.7669 44.3334 44.5742 44.1993C44.4807 44.1343 44.3742 44.0639 44.2668 44.0035C44.2145 43.9742 44.1359 43.9322 44.0417 43.8935C43.9934 43.8736 43.7515 43.7703 43.4324 43.7703V46.7703Z" fill="black"></path><circle cx="35.4865" cy="27.6757" r="3.60811" stroke="#2B8CFF" stroke-width="3"></circle><circle cx="25.2702" cy="31.6486" r="2.97297" stroke="#2B8CFF" stroke-width="2"></circle><circle cx="27.5406" cy="22.5676" r="1.7027" fill="#2B8CFF"></circle></svg> 