<?xml version="1.0" encoding="UTF-8"?> <svg xmlns="http://www.w3.org/2000/svg" width="84" height="84" viewBox="0 0 84 84" fill="none"><circle cx="42" cy="42" r="40.5" stroke="black" stroke-width="3"></circle><path d="M42 18V47H59" stroke="#2B8CFF" stroke-width="3"></path><path d="M23.5 16.5H60.5V46.9898V68.5H42H23.5V46.9898V16.5Z" stroke="black" stroke-width="3"></path><path d="M53.225 46.5C56.4571 45.0463 59.0463 42.4571 60.5 39.225C61.9537 42.4571 64.5429 45.0463 67.775 46.5C64.5429 47.9537 61.9537 50.5429 60.5 53.775C59.0463 50.5429 56.4571 47.9537 53.225 46.5Z" fill="white" stroke="#2B8CFF" stroke-width="3"></path><path d="M50 34C50.6857 35.8532 52.1468 37.3143 54 38C52.1468 38.6857 50.6857 40.1468 50 42C49.3143 40.1468 47.8532 38.6857 46 38C47.8532 37.3143 49.3143 35.8532 50 34Z" fill="#2B8CFF"></path><path d="M53 26C53.5143 27.3899 54.6101 28.4857 56 29C54.6101 29.5143 53.5143 30.6101 53 32C52.4857 30.6101 51.3899 29.5143 50 29C51.3899 28.4857 52.4857 27.3899 53 26Z" fill="#2B8CFF"></path></svg> 