<?xml version="1.0" encoding="UTF-8"?> <svg xmlns="http://www.w3.org/2000/svg" width="69" height="20" viewBox="0 0 69 20" fill="none"><path d="M7.512 19.288C6.184 19.288 4.896 19.112 3.648 18.76C2.416 18.392 1.424 17.92 0.672 17.344L1.992 14.416C2.712 14.944 3.568 15.368 4.56 15.688C5.552 16.008 6.544 16.168 7.536 16.168C8.64 16.168 9.456 16.008 9.984 15.688C10.512 15.352 10.776 14.912 10.776 14.368C10.776 13.968 10.616 13.64 10.296 13.384C9.992 13.112 9.592 12.896 9.096 12.736C8.616 12.576 7.96 12.4 7.128 12.208C5.848 11.904 4.8 11.6 3.984 11.296C3.168 10.992 2.464 10.504 1.872 9.832C1.296 9.16 1.008 8.264 1.008 7.144C1.008 6.168 1.272 5.288 1.8 4.504C2.328 3.704 3.12 3.072 4.176 2.608C5.248 2.144 6.552 1.912 8.088 1.912C9.16 1.912 10.208 2.04 11.232 2.296C12.256 2.552 13.152 2.92 13.92 3.4L12.72 6.352C11.168 5.472 9.616 5.032 8.064 5.032C6.976 5.032 6.168 5.208 5.64 5.56C5.128 5.912 4.872 6.376 4.872 6.952C4.872 7.528 5.168 7.96 5.76 8.248C6.368 8.52 7.288 8.792 8.52 9.064C9.8 9.368 10.848 9.672 11.664 9.976C12.48 10.28 13.176 10.76 13.752 11.416C14.344 12.072 14.64 12.96 14.64 14.08C14.64 15.04 14.368 15.92 13.824 16.72C13.296 17.504 12.496 18.128 11.424 18.592C10.352 19.056 9.048 19.288 7.512 19.288ZM22.2407 5.896C24.2407 5.896 25.7767 6.376 26.8487 7.336C27.9207 8.28 28.4567 9.712 28.4567 11.632V19H24.9527V17.392C24.2487 18.592 22.9367 19.192 21.0167 19.192C20.0247 19.192 19.1607 19.024 18.4247 18.688C17.7047 18.352 17.1527 17.888 16.7687 17.296C16.3847 16.704 16.1927 16.032 16.1927 15.28C16.1927 14.08 16.6407 13.136 17.5367 12.448C18.4487 11.76 19.8487 11.416 21.7367 11.416H24.7127C24.7127 10.6 24.4647 9.976 23.9687 9.544C23.4727 9.096 22.7287 8.872 21.7367 8.872C21.0487 8.872 20.3687 8.984 19.6967 9.208C19.0407 9.416 18.4807 9.704 18.0167 10.072L16.6727 7.456C17.3767 6.96 18.2167 6.576 19.1927 6.304C20.1847 6.032 21.2007 5.896 22.2407 5.896ZM21.9527 16.672C22.5927 16.672 23.1607 16.528 23.6567 16.24C24.1527 15.936 24.5047 15.496 24.7127 14.92V13.6H22.1447C20.6087 13.6 19.8407 14.104 19.8407 15.112C19.8407 15.592 20.0247 15.976 20.3927 16.264C20.7767 16.536 21.2967 16.672 21.9527 16.672ZM39.6932 5.896C41.2932 5.896 42.5812 6.376 43.5572 7.336C44.5492 8.296 45.0452 9.72 45.0452 11.608V19H41.3012V12.184C41.3012 11.16 41.0772 10.4 40.6292 9.904C40.1812 9.392 39.5332 9.136 38.6852 9.136C37.7412 9.136 36.9892 9.432 36.4292 10.024C35.8692 10.6 35.5892 11.464 35.5892 12.616V19H31.8452V6.088H35.4212V7.6C35.9172 7.056 36.5332 6.64 37.2692 6.352C38.0052 6.048 38.8132 5.896 39.6932 5.896ZM48.4389 6.088H52.1829V19H48.4389V6.088ZM50.3109 4.288C49.6229 4.288 49.0629 4.088 48.6309 3.688C48.1989 3.288 47.9829 2.792 47.9829 2.2C47.9829 1.608 48.1989 1.112 48.6309 0.711999C49.0629 0.311999 49.6229 0.111999 50.3109 0.111999C50.9989 0.111999 51.5589 0.303999 51.9909 0.688C52.4229 1.072 52.6389 1.552 52.6389 2.128C52.6389 2.752 52.4229 3.272 51.9909 3.688C51.5589 4.088 50.9989 4.288 50.3109 4.288ZM63.8657 19L61.0337 15.04L58.1057 19H54.0257L58.9937 12.496L54.1937 6.088H58.3937L61.1297 9.856L63.9377 6.088H67.9217L63.1217 12.4L68.1137 19H63.8657Z" fill="#2B8CFF"></path></svg> 